<?xml version="1.0" encoding="utf-8"?>
<!-- Generator: Moho 12.4 build 22203 -->
<!DOCTYPE svg PUBLIC "-//W3C//DTD SVG 1.1//EN" "http://www.w3.org/Graphics/SVG/1.1/DTD/svg11.dtd">
<svg version="1.1" id="Frame_0" xmlns="http://www.w3.org/2000/svg" xmlns:xlink="http://www.w3.org/1999/xlink" width="1280px" height="720px">
<g id="Layer_3">
<g id="Layer_11">
<g id="Layer_1">
<clipPath id="98b03b7a-4482-4871-be8a-52cb14b1347c">
<path fill="#ff3259" fill-rule="evenodd" stroke="none" d="M 652.681 88.307 C 803.532 88.307 925.224 209.999 925.224 360.850 C 925.224 511.700 803.532 633.392 652.681 633.392 C 501.831 633.392 380.139 511.700 380.139 360.850 C 380.139 209.999 501.831 88.307 652.681 88.307 Z"/>
</clipPath>
<path fill="#ff3259" fill-rule="evenodd" stroke="#ff3259" stroke-width="1" stroke-linecap="round" stroke-linejoin="round" d="M 652.681 88.307 C 803.532 88.307 925.224 209.999 925.224 360.850 C 925.224 511.700 803.532 633.392 652.681 633.392 C 501.831 633.392 380.139 511.700 380.139 360.850 C 380.139 209.999 501.831 88.307 652.681 88.307 Z"/>
</g>
<g id="Layer_3">
<path fill="#dc2d4c" fill-rule="evenodd" stroke="none" d="M 780.980 349.890 C 773.737 374.225 764.019 407.411 750.262 428.750 C 726.611 465.437 646.241 530.460 646.230 530.470 C 675.424 557.470 743.532 620.461 743.542 620.470 C 760.600 612.360 784.754 604.015 800.402 593.438 C 822.691 578.372 848.680 552.793 865.651 531.918 C 881.806 512.045 901.119 483.084 910.393 459.212 C 919.189 436.569 921.172 403.568 925.792 379.720 C 902.065 355.860 871.505 322.926 846.701 300.186 C 838.411 292.585 826.502 283.423 818.130 275.912 C 812.709 271.049 806.328 263.582 800.467 259.260 C 798.146 257.549 794.520 252.665 792.193 254.368 C 791.213 255.085 792.017 257.198 792.019 258.412 C 792.022 260.934 792.315 264.288 792.462 266.805 C 792.865 273.648 794.376 282.764 793.963 289.607 C 792.846 308.073 786.257 332.159 780.980 349.890 M 925.792 379.720 C 925.792 379.720 925.792 379.720 925.792 379.720 Z" clip-path="url(#98b03b7a-4482-4871-be8a-52cb14b1347c)"/>
<path fill="none" stroke="#dc2d4c" stroke-width="1" stroke-linecap="round" stroke-linejoin="round" d="M 743.542 620.470 C 743.542 620.470 743.542 620.470 743.542 620.470 C 760.600 612.360 784.754 604.015 800.402 593.438 C 822.691 578.372 848.680 552.793 865.651 531.918 C 881.806 512.045 901.119 483.084 910.393 459.212 C 919.189 436.569 921.172 403.568 925.792 379.720 C 902.065 355.860 871.505 322.926 846.701 300.186 C 838.411 292.585 826.502 283.423 818.130 275.912 C 812.709 271.049 806.328 263.582 800.467 259.260 C 798.146 257.549 794.520 252.665 792.193 254.368 C 791.213 255.085 792.017 257.198 792.019 258.412 C 792.022 260.934 792.315 264.288 792.462 266.805 C 792.865 273.648 794.376 282.764 793.963 289.607 C 792.846 308.073 786.257 332.159 780.980 349.890 C 773.737 374.225 764.019 407.411 750.262 428.750 C 726.611 465.437 646.241 530.460 646.230 530.470 C 646.230 530.470 646.230 530.470 646.230 530.470 C 675.424 557.470 743.532 620.461 743.542 620.470 M 925.792 379.720 C 925.792 379.720 925.792 379.720 925.792 379.720 " clip-path="url(#98b03b7a-4482-4871-be8a-52cb14b1347c)"/>
</g>
<g id="Layer_2">
<path fill="#fdfffc" fill-rule="evenodd" stroke="#fdfffc" stroke-width="1" stroke-linecap="round" stroke-linejoin="round" d="M 652.623 294.469 C 652.488 294.465 652.410 294.237 652.325 294.132 C 648.043 288.813 643.556 280.801 639.256 275.497 C 635.134 270.414 629.369 263.778 624.380 259.543 C 618.007 254.133 608.500 248.117 601.096 244.236 C 595.830 241.476 588.551 238.079 582.770 236.690 C 576.210 235.115 567.093 234.819 560.348 234.966 C 555.271 235.076 548.434 235.579 543.532 236.906 C 534.654 239.308 523.231 244.478 515.690 249.744 C 509.240 254.248 501.908 262.009 497.076 268.217 C 493.497 272.814 489.536 279.581 487.074 284.860 C 484.368 290.661 481.174 298.727 480.167 305.049 C 478.671 314.445 479.327 327.394 481.053 336.751 C 482.283 343.426 485.529 351.989 488.314 358.180 C 493.939 370.684 503.497 386.436 511.526 397.550 C 524.453 415.445 545.187 436.567 560.468 452.498 C 575.667 468.344 596.918 488.512 613.044 503.413 C 621.933 511.628 633.706 522.715 643.240 530.172 C 646.363 532.615 650.802 535.500 654.042 537.783 C 654.042 537.783 654.042 537.783 654.042 537.783 C 661.776 530.860 672.205 521.759 679.820 514.706 C 698.736 497.186 723.514 473.340 741.686 455.049 C 752.771 443.891 767.775 429.175 777.907 417.145 C 786.716 406.685 797.997 392.246 805.089 380.554 C 810.705 371.296 817.542 358.413 820.980 348.145 C 823.103 341.803 824.926 332.973 825.460 326.307 C 825.969 319.947 825.600 311.357 824.580 305.059 C 823.490 298.325 821.174 289.386 818.265 283.215 C 815.028 276.348 809.125 267.892 803.911 262.374 C 798.065 256.188 788.931 249.090 781.431 245.066 C 774.765 241.490 765.025 238.269 757.597 236.833 C 749.292 235.227 737.792 234.250 729.431 235.533 C 720.853 236.850 709.921 241.396 702.274 245.500 C 694.662 249.585 685.434 256.710 679.059 262.541 C 674.019 267.151 668.285 274.293 663.923 279.548 C 661.066 282.989 657.334 287.651 654.769 291.314 C 654.209 292.113 653.508 293.210 653.009 294.048 C 652.948 294.151 652.794 294.476 652.623 294.469 Z" clip-path="url(#98b03b7a-4482-4871-be8a-52cb14b1347c)"/>
</g>
</g>
</g>
</svg>
